<svg xmlns="http://www.w3.org/2000/svg" version="1.1" xmlns:xlink="http://www.w3.org/1999/xlink" viewBox="0 0 200 200"><rect width="200" height="200" fill="url('#gradient')"></rect><defs><linearGradient id="gradient" gradientTransform="rotate(45 0.5 0.5)"><stop offset="0%" stop-color="#4864bd"></stop><stop offset="100%" stop-color="#afef92"></stop></linearGradient></defs><g><g fill="#fbfbfb" transform="matrix(1.7360836394461712,0,0,1.7360836394461712,10.051983091353904,112.84936240110804)" stroke="#eb8668" stroke-width="0.65"><path d="M9.98 0L9.15-2.66L4.45-2.66L3.63 0L-0.03 0L5.19-14.22L8.41-14.22L13.66 0L9.98 0ZM6.80-10.23L5.27-5.30L8.33-5.30L6.80-10.23ZM14.92-13.19L18.21-13.19L18.21-10.57L19.95-10.57L19.95-8.28L18.21-8.28L18.21-3.45Q18.21-2.85 18.43-2.62Q18.64-2.38 19.28-2.38L19.28-2.38Q19.77-2.38 20.10-2.44L20.10-2.44L20.10-0.09Q19.21 0.20 18.24 0.20L18.24 0.20Q16.54 0.20 15.73-0.61Q14.92-1.41 14.92-3.04L14.92-3.04L14.92-8.28L13.57-8.28L13.57-10.57L14.92-10.57L14.92-13.19ZM21.79-13.19L25.08-13.19L25.08-10.57L26.82-10.57L26.82-8.28L25.08-8.28L25.08-3.45Q25.08-2.85 25.29-2.62Q25.51-2.38 26.14-2.38L26.14-2.38Q26.63-2.38 26.96-2.44L26.96-2.44L26.96-0.09Q26.07 0.20 25.11 0.20L25.11 0.20Q23.41 0.20 22.60-0.61Q21.79-1.41 21.79-3.04L21.79-3.04L21.79-8.28L20.44-8.28L20.44-10.57L21.79-10.57L21.79-13.19ZM33.22 0.20L33.22 0.20Q30.79 0.20 29.29-1.25Q27.78-2.71 27.78-5.03L27.78-5.03L27.78-5.30Q27.78-6.92 28.38-8.16Q28.98-9.40 30.14-10.08Q31.29-10.76 32.87-10.76L32.87-10.76Q35.10-10.76 36.39-9.38Q37.68-8.00 37.68-5.53L37.68-5.53L37.68-4.25L31.13-4.25Q31.31-3.36 31.90-2.85Q32.50-2.34 33.45-2.34L33.45-2.34Q35.01-2.34 35.89-3.44L35.89-3.44L37.39-1.66Q36.78-0.81 35.65-0.31Q34.52 0.20 33.22 0.20ZM32.85-8.22L32.85-8.22Q31.41-8.22 31.13-6.31L31.13-6.31L34.45-6.31L34.45-6.56Q34.47-7.35 34.05-7.79Q33.63-8.22 32.85-8.22ZM38.94-10.57L42.02-10.57L42.13-9.33Q43.22-10.76 45.15-10.76L45.15-10.76Q46.80-10.76 47.61-9.78Q48.43-8.79 48.46-6.81L48.46-6.81L48.46 0L45.16 0L45.16-6.67Q45.16-7.47 44.83-7.85Q44.51-8.22 43.66-8.22L43.66-8.22Q42.70-8.22 42.23-7.46L42.23-7.46L42.23 0L38.94 0L38.94-10.57ZM49.86-5.36L49.86-5.36Q49.86-7.87 50.95-9.32Q52.03-10.76 53.97-10.76L53.97-10.76Q55.39-10.76 56.36-9.65L56.36-9.65L56.36-15L59.66-15L59.66 0L56.70 0L56.53-1.13Q55.52 0.20 53.96 0.20L53.96 0.20Q52.07 0.20 50.97-1.25Q49.86-2.70 49.86-5.36ZM53.16-5.76L53.15-5.16Q53.15-2.34 54.79-2.34L54.79-2.34Q55.89-2.34 56.36-3.26L56.36-3.26L56.36-7.29Q55.91-8.22 54.81-8.22L54.81-8.22Q53.29-8.22 53.16-5.76L53.16-5.76ZM66.64 0.20L66.64 0.20Q64.21 0.20 62.71-1.25Q61.20-2.71 61.20-5.03L61.20-5.03L61.20-5.30Q61.20-6.92 61.80-8.16Q62.40-9.40 63.55-10.08Q64.71-10.76 66.29-10.76L66.29-10.76Q68.52-10.76 69.80-9.38Q71.09-8.00 71.09-5.53L71.09-5.53L71.09-4.25L64.55-4.25Q64.73-3.36 65.32-2.85Q65.92-2.34 66.87-2.34L66.87-2.34Q68.43-2.34 69.31-3.44L69.31-3.44L70.81-1.66Q70.20-0.81 69.07-0.31Q67.94 0.20 66.64 0.20ZM66.27-8.22L66.27-8.22Q64.82-8.22 64.55-6.31L64.55-6.31L67.87-6.31L67.87-6.56Q67.89-7.35 67.47-7.79Q67.05-8.22 66.27-8.22ZM72.35-10.57L75.44-10.57L75.55-9.33Q76.64-10.76 78.56-10.76L78.56-10.76Q80.21-10.76 81.03-9.78Q81.85-8.79 81.88-6.81L81.88-6.81L81.88 0L78.57 0L78.57-6.67Q78.57-7.47 78.25-7.85Q77.93-8.22 77.08-8.22L77.08-8.22Q76.11-8.22 75.64-7.46L75.64-7.46L75.64 0L72.35 0L72.35-10.57ZM88.16-2.34L88.16-2.34Q88.86-2.34 89.24-2.72Q89.62-3.10 89.61-3.77L89.61-3.77L92.70-3.77Q92.70-2.03 91.45-0.92Q90.21 0.20 88.24 0.20L88.24 0.20Q85.94 0.20 84.61-1.25Q83.28-2.70 83.28-5.25L83.28-5.25L83.28-5.39Q83.28-6.99 83.87-8.22Q84.46-9.44 85.58-10.10Q86.69-10.76 88.21-10.76L88.21-10.76Q90.27-10.76 91.48-9.62Q92.70-8.48 92.70-6.52L92.70-6.52L89.61-6.52Q89.61-7.34 89.21-7.78Q88.81-8.22 88.13-8.22L88.13-8.22Q86.86-8.22 86.64-6.59L86.64-6.59Q86.57-6.07 86.57-5.17L86.57-5.17Q86.57-3.57 86.95-2.96Q87.33-2.34 88.16-2.34ZM99.20 0.20L99.20 0.20Q96.77 0.20 95.26-1.25Q93.76-2.71 93.76-5.03L93.76-5.03L93.76-5.30Q93.76-6.92 94.36-8.16Q94.96-9.40 96.11-10.08Q97.27-10.76 98.85-10.76L98.85-10.76Q101.07-10.76 102.36-9.38Q103.65-8.00 103.65-5.53L103.65-5.53L103.65-4.25L97.11-4.25Q97.29-3.36 97.88-2.85Q98.48-2.34 99.42-2.34L99.42-2.34Q100.99-2.34 101.87-3.44L101.87-3.44L103.37-1.66Q102.75-0.81 101.63-0.31Q100.50 0.20 99.20 0.20ZM98.83-8.22L98.83-8.22Q97.38-8.22 97.11-6.31L97.11-6.31L100.43-6.31L100.43-6.56Q100.45-7.35 100.03-7.79Q99.61-8.22 98.83-8.22Z"></path></g></g></svg>